<?xml version="1.0" standalone="no"?>
<!DOCTYPE svg PUBLIC "-//W3C//DTD SVG 20010904//EN"
 "http://www.w3.org/TR/2001/REC-SVG-20010904/DTD/svg10.dtd">
<svg version="1.0" xmlns="http://www.w3.org/2000/svg"
 width="518.000000pt" height="518.000000pt" viewBox="0 0 518.000000 518.000000"
 preserveAspectRatio="xMidYMid meet">
<metadata>
Created by potrace 1.11, written by Peter Selinger 2001-2013
</metadata>
<g transform="translate(0.000000,518.000000) scale(0.100000,-0.100000)"
fill="#000000" stroke="none">
<path d="M0 2590 l0 -2590 2590 0 2590 0 0 2590 0 2590 -2590 0 -2590 0 0
-2590z m1977 873 c44 -126 196 -562 339 -971 142 -408 261 -742 264 -742 3 0
119 318 259 708 140 389 297 825 349 970 l95 262 283 0 284 0 0 -1220 0 -1220
-195 0 -195 0 0 628 c0 584 12 1245 25 1355 3 26 2 47 -3 47 -5 0 -173 -456
-373 -1012 l-365 -1013 -178 0 -178 0 -352 1012 c-193 556 -355 1015 -360
1020 -5 4 -6 -37 -2 -97 16 -259 26 -733 26 -1312 l0 -628 -185 0 -185 0 0
1220 0 1220 284 0 283 0 80 -227z"/>
</g>
</svg>
